<?xml version="1.0" encoding="iso-8859-1"?>
<!-- Generator: Adobe Illustrator 19.0.0, SVG Export Plug-In . SVG Version: 6.00 Build 0)  -->
<svg version="1.1" id="Layer_1" xmlns="http://www.w3.org/2000/svg" xmlns:xlink="http://www.w3.org/1999/xlink" x="0px" y="0px"
	 viewBox="0 0 390.853 390.853" style="enable-background:new 0 0 390.853 390.853;" xml:space="preserve">
<g>
	<path style="fill:#FFFFFF;" d="M357.689,33.648H240.097v145.261c0,5.947-4.848,10.861-10.861,10.861
		c-5.947,0-10.861-4.848-10.861-10.861v-30.901h-46.093v30.901c0,5.947-4.848,10.861-10.861,10.861
		c-5.947,0-10.861-4.848-10.861-10.861V33.648H32.517c-5.947,0-10.861,4.848-10.861,10.861v171.248
		c0,5.947,4.848,10.861,10.861,10.861h325.172c5.948,0,10.861-4.848,10.861-10.861V44.509
		C368.549,37.98,363.636,33.648,357.689,33.648z"/>
	<rect x="171.83" y="88.921" style="fill:#FFFFFF;" width="46.093" height="36.848"/>
	<rect x="171.83" y="33.648" style="fill:#FFFFFF;" width="46.093" height="34.133"/>
</g>
<rect x="43.378" y="55.37" style="fill:#FFC10D;" width="303.515" height="149.592"/>
<path style="fill:#194F82;" d="M357.689,11.992h-52.04c0,0,0,0,0-0.517c0-5.947-4.849-10.861-10.861-10.861h-39.046
	c-5.947,0-10.861,4.848-10.861,10.861c0,0,0,0,0,0.517h-99.62c0,0,0,0,0-0.517c0-5.947-4.848-10.861-10.861-10.861H95.354
	c-5.947,0-10.861,4.848-10.861,10.861c0,0,0,0,0,0.517H32.517C14.61,11.992,0,26.602,0,44.509v171.248
	c0,17.907,14.61,32.517,32.517,32.517h325.172c17.907,0,32.517-14.61,32.517-32.517V44.509
	C390.206,26.085,375.596,11.992,357.689,11.992z M368.549,215.758c0,5.947-4.849,10.861-10.861,10.861H32.517
	c-5.947,0-10.861-4.848-10.861-10.861V44.509c0-5.947,4.848-10.861,10.861-10.861h117.592v145.261
	c0,5.947,4.848,10.861,10.861,10.861c5.947,0,10.861-4.848,10.861-10.861v-30.901h46.093v30.901c0,5.947,4.848,10.861,10.861,10.861
	c5.947,0,10.861-4.848,10.861-10.861V33.648h117.592c5.947,0,10.861,4.848,10.861,10.861v171.248H368.549z M171.83,67.265V33.648
	h46.093v34.133H171.83V67.265z M218.376,88.921v36.848h-46.093V88.921C172.283,88.921,218.376,88.921,218.376,88.921z"/>
<g>
	<path style="fill:#56ACE0;" d="M71.499,369.164c-15.709,0-28.186-12.477-28.186-28.186c0-15.709,12.477-28.186,28.186-28.186
		s28.186,12.477,28.186,28.186C100.267,356.687,87.273,369.164,71.499,369.164z"/>
	<path style="fill:#56ACE0;" d="M353.875,340.978c0,15.709-12.994,28.186-28.186,28.186c-15.709,0-28.186-12.477-28.186-28.186
		c0-15.709,12.477-28.186,28.186-28.186C341.463,312.792,353.875,325.269,353.875,340.978z"/>
</g>
<rect x="163.685" y="281.891" style="fill:#FFFFFF;" width="63.418" height="21.657"/>
<g>
	<path style="fill:#194F82;" d="M379.345,260.234H10.861C4.913,260.234,0,265.083,0,271.095c0,5.947,4.848,10.861,10.861,10.861
		h131.168v32.517c0,5.947,4.848,10.861,10.861,10.861h85.075c5.947,0,10.861-4.849,10.861-10.861v-32.517h131.168
		c5.947,0,10.861-4.848,10.861-10.861C390.723,265.083,385.358,260.234,379.345,260.234z M226.521,303.547h-62.836v-21.657h63.418
		v21.657H226.521z"/>
	<path style="fill:#194F82;" d="M71.564,290.554c-27.669,0-49.842,22.238-49.842,49.842c0,27.669,22.238,49.842,49.842,49.842
		s49.842-22.238,49.842-49.842C121.406,312.792,99.168,290.554,71.564,290.554z M71.564,369.164
		c-15.709,0-28.186-12.477-28.186-28.186c0-15.709,12.477-28.186,28.186-28.186s28.186,12.477,28.186,28.186
		C100.267,356.687,87.273,369.164,71.564,369.164z"/>
	<path style="fill:#194F82;" d="M325.689,290.554c-27.669,0-49.842,22.238-49.842,49.842c0,27.669,22.238,49.842,49.842,49.842
		c27.604,0,49.842-22.238,49.842-49.842C375.596,312.792,352.84,290.554,325.689,290.554z M325.689,369.164
		c-15.709,0-28.186-12.477-28.186-28.186c0-15.709,12.477-28.186,28.186-28.186c15.709,0,28.186,12.477,28.186,28.186
		C353.875,356.687,340.881,369.164,325.689,369.164z"/>
</g>
<g>
</g>
<g>
</g>
<g>
</g>
<g>
</g>
<g>
</g>
<g>
</g>
<g>
</g>
<g>
</g>
<g>
</g>
<g>
</g>
<g>
</g>
<g>
</g>
<g>
</g>
<g>
</g>
<g>
</g>
</svg>
